<svg width="30" height="30" viewBox="0 0 30 30" fill="none" xmlns="http://www.w3.org/2000/svg">
<g clip-path="url(#clip0_1_44)">
<path d="M12.6136 17.8409C12.6136 17.4644 12.3084 17.1591 11.9318 17.1591H8.86364V13.5227H11.9318C12.3084 13.5227 12.6136 13.2175 12.6136 12.8409V10.3409C12.6136 8.86414 13.2003 7.44785 14.2445 6.40361C15.2888 5.35938 16.7051 4.77273 18.1818 4.77273H21.25V8.40909H18.1818C17.6695 8.40909 17.1781 8.61262 16.8158 8.97491C16.4535 9.3372 16.25 9.82856 16.25 10.3409V12.8409C16.25 13.2175 16.5553 13.5227 16.9318 13.5227H21.0586L20.1495 17.1591H16.9318C16.5553 17.1591 16.25 17.4644 16.25 17.8409V25.9091H12.6136V17.8409Z" fill="white" stroke="white" stroke-width="1.36364" stroke-linecap="round" stroke-linejoin="round"/>
</g>
<defs>
<clipPath id="clip0_1_44">
<rect width="30" height="30" fill="white"/>
</clipPath>
</defs>
</svg>
