<svg width="30" height="30" viewBox="0 0 30 30" fill="none" xmlns="http://www.w3.org/2000/svg">
<g clip-path="url(#clip0_1_58)">
<path d="M24.7687 6.48354C25.3854 6.31501 26.0162 6.14261 26.6518 5.91202C26.4082 6.48696 26.0885 7.13796 25.7729 7.7574C25.6568 7.98531 25.5403 8.21092 25.4306 8.42325C25.3002 8.67573 25.1795 8.90944 25.0807 9.10594C24.9885 9.28925 24.9085 9.45376 24.8507 9.58547C24.822 9.65084 24.7954 9.71608 24.775 9.77592C24.761 9.8171 24.7269 9.91842 24.7275 10.0303C24.736 11.5689 24.5331 13.1013 24.1246 14.5847C22.7623 19.4325 19.221 22.6617 14.903 23.9161C11.6796 24.8518 7.99251 24.4377 4.44429 22.8952C6.56974 22.5814 8.44089 21.6394 10.2772 20.4161C10.4295 20.3147 10.5142 20.1382 10.4981 19.9559C10.4819 19.7737 10.3675 19.6148 10.1998 19.5417C7.71773 18.4596 6.21216 17.1024 5.32651 15.7031C4.44015 14.3027 4.15119 12.8228 4.16466 11.4579C4.17818 10.0891 4.49619 8.84449 4.81478 7.93706C4.91325 7.65656 5.01128 7.40971 5.09945 7.20302C7.52696 10.1791 11.0711 11.8507 15.0128 11.7498C15.2839 11.7429 15.5 11.5212 15.5 11.25V10H15.5L15.5 9.99314C15.4743 8.11981 16.6403 6.47477 18.4503 5.797C20.3434 5.08814 22.1664 5.21684 23.3758 6.58161C23.5044 6.7268 23.7055 6.78446 23.8915 6.72956C24.18 6.64444 24.4727 6.56443 24.7687 6.48354Z" fill="white" stroke="white" stroke-linecap="round" stroke-linejoin="round"/>
</g>
<defs>
<clipPath id="clip0_1_58">
<rect width="30" height="30" fill="white"/>
</clipPath>
</defs>
</svg>
